/* XPM */
static char *feb8ae2cd40e4121f3459cb2c70af63cDG02uRGgR5pF6tyc[] = {
/* columns rows colors chars-per-pixel */
"64 64 4 1 ",
"  c #385000",
". c #18A068",
"X c #70C0A0",
"o c #A0D0C0",
/* pixels */
"XXXXXXXXXXXXXXXXXXXXXXXXXXXXXXXXXXXXXXXXXXXXXXXX........XXXXXXXX",
"XXXXXXXXXXXXXXXXXXXXXXXXXXXXXXXXXXXXXXXXXXXXXXXX........XXXXXXXX",
"XXXXXXXXXXXXXXXXXXXXXXXXXXXXXXXXXXXXXXXXXXXXXXXX........XXXXXXXX",
"XXXXXXXXXXXXXXXXXXXXXXXXXXXXXXXXXXXXXXXXXXXXXXXX........XXXXXXXX",
"XXXXXXXX........    ....XXXXXXXXXXXXXXXX........oooooooo....XXXX",
"XXXXXXXX........    ....XXXXXXXXXXXXXXXX........oooooooo....XXXX",
"XXXXXXXX........    ....XXXXXXXXXXXXXXXX........oooooooo....XXXX",
"XXXXXXXX........    ....XXXXXXXXXXXXXXXX........oooooooo....XXXX",
"XXXXXXXX....ooooooooXXXX    XXXXXXXX....oooooooooooo....XXXXXXXX",
"XXXXXXXX....ooooooooXXXX    XXXXXXXX....oooooooooooo....XXXXXXXX",
"XXXXXXXX....ooooooooXXXX    XXXXXXXX....oooooooooooo....XXXXXXXX",
"XXXXXXXX....ooooooooXXXX    XXXXXXXX....oooooooooooo....XXXXXXXX",
"XXXXXXXXXXXX    XXXXXXXX....        XXXXXXXXoooo    ....XXXXXXXX",
"XXXXXXXXXXXX    XXXXXXXX....        XXXXXXXXoooo    ....XXXXXXXX",
"XXXXXXXXXXXX    XXXXXXXX....        XXXXXXXXoooo    ....XXXXXXXX",
"XXXXXXXXXXXX    XXXXXXXX....        XXXXXXXXoooo    ....XXXXXXXX",
"XXXX........        ............    ........        ........XXXX",
"XXXX........        ............    ........        ........XXXX",
"XXXX........        ............    ........        ........XXXX",
"XXXX........        ............    ........        ........XXXX",
"....ooooooooXXXX....    ....    ........    ....oooooooooooo    ",
"....ooooooooXXXX....    ....    ........    ....oooooooooooo    ",
"....ooooooooXXXX....    ....    ........    ....oooooooooooo    ",
"....ooooooooXXXX....    ....    ........    ....oooooooooooo    ",
"........XXXXXXXXXXXX....        ....    XXXXXXXXoooooooo    XXXX",
"........XXXXXXXXXXXX....        ....    XXXXXXXXoooooooo    XXXX",
"........XXXXXXXXXXXX....        ....    XXXXXXXXoooooooo    XXXX",
"........XXXXXXXXXXXX....        ....    XXXXXXXXoooooooo    XXXX",
"XXXX    XXXXXXXX........        ....    ....XXXXoooo....XXXXXXXX",
"XXXX    XXXXXXXX........        ....    ....XXXXoooo....XXXXXXXX",
"XXXX    XXXXXXXX........        ....    ....XXXXoooo....XXXXXXXX",
"XXXX    XXXXXXXX........        ....    ....XXXXoooo....XXXXXXXX",
"XXXX....        ................    ............        ....XXXX",
"XXXX....        ................    ............        ....XXXX",
"XXXX....        ................    ............        ....XXXX",
"XXXX....        ................    ............        ....XXXX",
"....                    ....        ....                ........",
"....                    ....        ....                ........",
"....                    ....        ....                ........",
"....                    ....        ....                ........",
"........    XXXX........    ....        ........XXXXXXXX    XXXX",
"........    XXXX........    ....        ........XXXXXXXX    XXXX",
"........    XXXX........    ....        ........XXXXXXXX    XXXX",
"........    XXXX........    ....        ........XXXXXXXX    XXXX",
"XXXX    ooooXXXXXXXX....    ........    ....XXXXXXXXXXXXXXXX    ",
"XXXX    ooooXXXXXXXX....    ........    ....XXXXXXXXXXXXXXXX    ",
"XXXX    ooooXXXXXXXX....    ........    ....XXXXXXXXXXXXXXXX    ",
"XXXX    ooooXXXXXXXX....    ........    ....XXXXXXXXXXXXXXXX    ",
"XXXX....XXXXoooo        ....XXXXXXXX....    ........        ....",
"XXXX....XXXXoooo        ....XXXXXXXX....    ........        ....",
"XXXX....XXXXoooo        ....XXXXXXXX....    ........        ....",
"XXXX....XXXXoooo        ....XXXXXXXX....    ........        ....",
"XXXX                    XXXX....XXXXXXXX                ........",
"XXXX                    XXXX....XXXXXXXX                ........",
"XXXX                    XXXX....XXXXXXXX                ........",
"XXXX                    XXXX....XXXXXXXX                ........",
"XXXXXXXX....        ....        XXXX    ....        ........XXXX",
"XXXXXXXX....        ....        XXXX    ....        ........XXXX",
"XXXXXXXX....        ....        XXXX    ....        ........XXXX",
"XXXXXXXX....        ....        XXXX    ....        ........XXXX",
"XXXXXXXXXXXXXXXXXXXXXXXXXXXX        ........XXXXXXXXXXXXXXXXXXXX",
"XXXXXXXXXXXXXXXXXXXXXXXXXXXX        ........XXXXXXXXXXXXXXXXXXXX",
"XXXXXXXXXXXXXXXXXXXXXXXXXXXX        ........XXXXXXXXXXXXXXXXXXXX",
"XXXXXXXXXXXXXXXXXXXXXXXXXXXX        ........XXXXXXXXXXXXXXXXXXXX"
};
