/* XPM */
static char *b5d2b0074eca4d51d3ed95dd84f2f076hl5txzlTUeDQaQtf[] = {
/* columns rows colors chars-per-pixel */
"64 64 10 1 ",
"  c gray25",
". c #800000",
"X c #A80000",
"o c #D02828",
"O c #F89878",
"+ c #40B080",
"@ c #70C0A0",
"# c #909090",
"$ c #A0D0C0",
"% c #F8F8F8",
/* pixels */
"@@@@@@@@@@@@@@@@@@@@$$$$@@@@@@@@@@@@@@@@@@@@@@@@@@@@@@@@@@@@@@@@",
"@@@@@@@@@@@@@@@@@@@@$$$$@@@@@@@@@@@@@@@@@@@@@@@@@@@@@@@@@@@@@@@@",
"@@@@@@@@@@@@@@@@@@@@$$$$@@@@@@@@@@@@@@@@@@@@@@@@@@@@@@@@@@@@@@@@",
"@@@@@@@@@@@@@@@@@@@@$$$$@@@@@@@@@@@@@@@@@@@@@@@@@@@@@@@@@@@@@@@@",
"@@@@@@@@@@@@@@@@@@@@@@@@@@@@@@@@$$$$$$$$@@@@@@@@@@@@@@@@@@@@@@@@",
"@@@@@@@@@@@@@@@@@@@@@@@@@@@@@@@@$$$$$$$$@@@@@@@@@@@@@@@@@@@@@@@@",
"@@@@@@@@@@@@@@@@@@@@@@@@@@@@@@@@$$$$$$$$@@@@@@@@@@@@@@@@@@@@@@@@",
"@@@@@@@@@@@@@@@@@@@@@@@@@@@@@@@@$$$$$$$$@@@@@@@@@@@@@@@@@@@@@@@@",
"@@@@@@@@@@@@@@@@@@@@++++@@@@@@@@$$$$$$$$@@@@@@@@@@@@@@@@@@@@@@@@",
"@@@@@@@@@@@@@@@@@@@@++++@@@@@@@@$$$$$$$$@@@@@@@@@@@@@@@@@@@@@@@@",
"@@@@@@@@@@@@@@@@@@@@++++@@@@@@@@$$$$$$$$@@@@@@@@@@@@@@@@@@@@@@@@",
"@@@@@@@@@@@@@@@@@@@@++++@@@@@@@@$$$$$$$$@@@@@@@@@@@@@@@@@@@@@@@@",
"++++@@@@@@@@@@@@@@@@@@@@@@@@@@@@@@@@@@@@@@@@++++@@@@$$$$@@@@@@@@",
"++++@@@@@@@@@@@@@@@@@@@@@@@@@@@@@@@@@@@@@@@@++++@@@@$$$$@@@@@@@@",
"++++@@@@@@@@@@@@@@@@@@@@@@@@@@@@@@@@@@@@@@@@++++@@@@$$$$@@@@@@@@",
"++++@@@@@@@@@@@@@@@@@@@@@@@@@@@@@@@@@@@@@@@@++++@@@@$$$$@@@@@@@@",
"@@@@@@@@@@@@@@@@@@@@@@@@@@@@@@@@@@@@@@@@@@@@@@@@@@@@@@@@@@@@@@@@",
"@@@@@@@@@@@@@@@@@@@@@@@@@@@@@@@@@@@@@@@@@@@@@@@@@@@@@@@@@@@@@@@@",
"@@@@@@@@@@@@@@@@@@@@@@@@@@@@@@@@@@@@@@@@@@@@@@@@@@@@@@@@@@@@@@@@",
"@@@@@@@@@@@@@@@@@@@@@@@@@@@@@@@@@@@@@@@@@@@@@@@@@@@@@@@@@@@@@@@@",
"@@@@@@@@@@@@@@@@@@@@@@@@@@@@        @@@@@@@@$$$$@@@@@@@@@@@@++++",
"@@@@@@@@@@@@@@@@@@@@@@@@@@@@        @@@@@@@@$$$$@@@@@@@@@@@@++++",
"@@@@@@@@@@@@@@@@@@@@@@@@    XXXXXXXX    @@@@$$$$@@@@@@@@@@@@++++",
"@@@@@@@@@@@@@@@@@@@@@@@@    XXXXXXXX    @@@@$$$$@@@@@@@@@@@@++++",
"@@@@@@@@@@@@++++@@@@@@  XXooOOooooXXXX..  @@@@@@@@@@@@@@@@@@@@@@",
"@@@@@@@@@@@@++++@@@@@@  XXooOOooooXXXX..  @@@@@@@@@@@@@@@@@@@@@@",
"@@@@@@@@@@@@++++@@@@@@  ooOO%%OOooooXXXX  @@@@@@@@@@@@@@@@@@@@@@",
"@@@@@@@@@@@@++++@@@@@@  ooOO%%OOooooXXXX  @@@@@@@@@@@@@@@@@@@@@@",
"@@@@@@@@@@@@@@@@@@@@  XXooooOOooooooXXXX..  @@@@@@@@@@@@@@@@@@@@",
"@@@@@@@@@@@@@@@@@@@@  XXooooOOooooooXXXX..  @@@@@@@@@@@@@@@@@@@@",
"@@@@@@@@@@@@@@@@@@@@  oooooooo    XXXXXX..  @@@@@@@@@@@@@@@@@@@@",
"@@@@@@@@@@@@@@@@@@@@  oooooooo    XXXXXX..  @@@@@@@@@@@@@@@@@@@@",
"@@@@@@@@@@@@@@@@@@@@    oooo  %%##  XX..    @@@@@@@@$$$$@@@@@@@@",
"@@@@@@@@@@@@@@@@@@@@    oooo  %%##  XX..    @@@@@@@@$$$$@@@@@@@@",
"@@@@@@@@@@@@@@@@@@@@  %%      ####      ##  @@@@@@@@$$$$@@@@@@@@",
"@@@@@@@@@@@@@@@@@@@@  %%      ####      ##  @@@@@@@@$$$$@@@@@@@@",
"$$$$$$$$@@@@@@@@@@@@@@  %%%%%%    ######  @@@@@@@@@@@@@@@@@@@@@@",
"$$$$$$$$@@@@@@@@@@@@@@  %%%%%%    ######  @@@@@@@@@@@@@@@@@@@@@@",
"$$$$$$$$@@@@@@@@@@@@@@  ##%%%%%%########  @@@@@@@@@@@@@@@@@@@@@@",
"$$$$$$$$@@@@@@@@@@@@@@  ##%%%%%%########  @@@@@@@@@@@@@@@@@@@@@@",
"$$$$$$$$@@@@@@@@@@@@@@@@    ########    @@@@@@@@@@@@++++@@@@@@@@",
"$$$$$$$$@@@@@@@@@@@@@@@@    ########    @@@@@@@@@@@@++++@@@@@@@@",
"$$$$$$$$@@@@@@@@@@@@@@@@@@@@        @@@@@@@@@@@@@@@@++++@@@@@@@@",
"$$$$$$$$@@@@@@@@@@@@@@@@@@@@        @@@@@@@@@@@@@@@@++++@@@@@@@@",
"@@@@@@@@@@@@++++@@@@$$$$@@@@@@@@++++@@@@@@@@@@@@@@@@@@@@@@@@@@@@",
"@@@@@@@@@@@@++++@@@@$$$$@@@@@@@@++++@@@@@@@@@@@@@@@@@@@@@@@@@@@@",
"@@@@@@@@@@@@++++@@@@$$$$@@@@@@@@++++@@@@@@@@@@@@@@@@@@@@@@@@@@@@",
"@@@@@@@@@@@@++++@@@@$$$$@@@@@@@@++++@@@@@@@@@@@@@@@@@@@@@@@@@@@@",
"@@@@@@@@@@@@@@@@@@@@@@@@@@@@@@@@@@@@@@@@@@@@@@@@@@@@@@@@@@@@@@@@",
"@@@@@@@@@@@@@@@@@@@@@@@@@@@@@@@@@@@@@@@@@@@@@@@@@@@@@@@@@@@@@@@@",
"@@@@@@@@@@@@@@@@@@@@@@@@@@@@@@@@@@@@@@@@@@@@@@@@@@@@@@@@@@@@@@@@",
"@@@@@@@@@@@@@@@@@@@@@@@@@@@@@@@@@@@@@@@@@@@@@@@@@@@@@@@@@@@@@@@@",
"@@@@@@@@@@@@$$$$@@@@@@@@@@@@++++@@@@@@@@@@@@@@@@@@@@@@@@@@@@++++",
"@@@@@@@@@@@@$$$$@@@@@@@@@@@@++++@@@@@@@@@@@@@@@@@@@@@@@@@@@@++++",
"@@@@@@@@@@@@$$$$@@@@@@@@@@@@++++@@@@@@@@@@@@@@@@@@@@@@@@@@@@++++",
"@@@@@@@@@@@@$$$$@@@@@@@@@@@@++++@@@@@@@@@@@@@@@@@@@@@@@@@@@@++++",
"@@@@@@@@@@@@@@@@@@@@@@@@@@@@@@@@@@@@@@@@@@@@++++@@@@@@@@$$$$$$$$",
"@@@@@@@@@@@@@@@@@@@@@@@@@@@@@@@@@@@@@@@@@@@@++++@@@@@@@@$$$$$$$$",
"@@@@@@@@@@@@@@@@@@@@@@@@@@@@@@@@@@@@@@@@@@@@++++@@@@@@@@$$$$$$$$",
"@@@@@@@@@@@@@@@@@@@@@@@@@@@@@@@@@@@@@@@@@@@@++++@@@@@@@@$$$$$$$$",
"@@@@@@@@@@@@@@@@@@@@@@@@@@@@@@@@@@@@@@@@@@@@@@@@@@@@++++$$$$$$$$",
"@@@@@@@@@@@@@@@@@@@@@@@@@@@@@@@@@@@@@@@@@@@@@@@@@@@@++++$$$$$$$$",
"@@@@@@@@@@@@@@@@@@@@@@@@@@@@@@@@@@@@@@@@@@@@@@@@@@@@++++$$$$$$$$",
"@@@@@@@@@@@@@@@@@@@@@@@@@@@@@@@@@@@@@@@@@@@@@@@@@@@@++++$$$$$$$$"
};
