/* XPM */
static char *_43c50ec4a9e4755ff5133d1ac0b0e55J4LrdEFnMVvXIcpr[] = {
/* columns rows colors chars-per-pixel */
"64 64 6 1 ",
"  c black",
". c #673309",
"X c #49836C",
"o c #40B080",
"O c #70C0A0",
"+ c #A0D0C0",
/* pixels */
"OOOOOOOOOOOOOOOOOOOO++++OOOOOOOOOOOOOOOOOOOOOOOOOOOOOOOOOOOOOOOO",
"OOOOOOOOOOOOOOOOOOOO++++OOOOOOOOOOOOOOOOOOOOOOOOOOOOOOOOOOOOOOOO",
"OOOOOOOOOOOOOOOOOOOO++++OOOOOOOOOOOOOOOOOOOOOOOOOOOOOOOOOOOOOOOO",
"OOOOOOOOOOOOOOOOOOOO++++OOOOOOOOOOOOOOOOOOOOOOOOOOOOOOOOOOOOOOOO",
"OOOOOOOOOOOOOOOOOOOOOOOOOOOOOOOO++++++++OOOOOOOOOOOOOOOOOOOOOOOO",
"OOOOOOOOOOOOOOOOOOOOOOOOOOOOOOOO++++++++OOOOOOOOOOOOOOOOOOOOOOOO",
"OOOOOOOOOOOOOOOOOOOOOOOOOOOOOOOO++++++++OOOOOOOOOOOOOOOOOOOOOOOO",
"OOOOOOOOOOOOOOOOOOOOOOOOOOOOOOOO++++++++OOOOOOOOOOOOOOOOOOOOOOOO",
"OOOOOOOOOOOOOOOOOOOOooooOOOOOOOO++++++++OOOOOOOOOOOOOOOOOOOOOOOO",
"OOOOOOOOOOOOOOOOOOOOooooOOOOOOOO++++++++OOOOOOOOOOOOOOOOOOOOOOOO",
"OOOOOOOOOOOOOOOOOOOOooooOOOOOOOO++++++++OOOOOOOOOOOOOOOOOOOOOOOO",
"OOOOOOOOOOOOOOOOOOOOooooOOOOOOOO++++++++OOOOOOOOOOOOOOOOOOOOOOOO",
"ooooOOOOOOOOOOOOOOOOOOOOOOOOOOOOOOOOOOOOOOOOooooOOOO++++OOOOOOOO",
"ooooOOOOOOOOOOOOOOOOOOOOOOOOOOOOOOOOOOOOOOOOooooOOOO++++OOOOOOOO",
"ooooOOOOOOOOOOOOOOOOOOOOOOOOOOOOOOOOOOOOOOOOooooOOOO++++OOOOOOOO",
"ooooOOOOOOOOOOOOOOOOOOOOOOOOOOOOOOOOOOOOOOOOooooOOOO++++OOOOOOOO",
"OOOOOOOOOOOOOOOOOOOOOOOOOOOOOOOOOOOOOOOOOOOOOOOOOOOOOOOOOOOOOOOO",
"OOOOOOOOOOOOOOOOOOOOOOOXXXXXXXXXXXXXXXXXXOOOOOOOOOOOOOOOOOOOOOOO",
"OOOOOOOOOOOOOOOOOXXXXXXXXXXXXXXXXXXXXXXXXXXXXXXOOOOOOOOOOOOOOOOO",
"OOOOOOOOOOOOOXXXXXXXXXXXXXXXXXXXXXXXXXXXXXXXXXXXXXXOOOOOOOOOOOOO",
"OOOOOOOOOOXXXXXXXXXXXXX..................XXXXXXXXXXXXXOOOOOOoooo",
"OOOOOOOOXXXXXXXXX..............................XXXXXXXXXOOOOoooo",
"OOOOOOXXXXXXX......................................XXXXXXXOOoooo",
"OOOOOXXXXX............................................XXXXXOoooo",
"OOOOXXXX................................................XXXXOOOO",
"OOOXXXX..................................................XXXXOOO",
"OOXXXX....................................................XXXXOO",
"OXXX........................................................XXXO",
"XXX...................                    ...................XXX",
"XX...............                              ...............XX",
"XX...........                                      ...........XX",
"XX.........                                          .........XX",
"XX.......                                              .......XX",
"XX......                                                ......XX",
"XX.....                                                  .....XX",
"XXX...                                                    ...XXX",
"+XXX.                                                      .XXXO",
"++XXX                                                      XXXOO",
"+++XXX                                                    XXXOOO",
"++++XXX                                                  XXXOOOO",
"+++++XXXX                                              XXXXOOOOO",
"++++++XXXXXX                                        XXXXXXOOOOOO",
"+++++++XXXXXXXXXXX                            XXXXXXXXXXXOOOOOOO",
"++++++++OXXXXXXXXXXXXXX                  XXXXXXXXXXXXXXoOOOOOOOO",
"OOOOOOOOOOOOoXXXXXXXXXXXXXXXXXXXXXXXXXXXXXXXXXXXXXXOOOOOOOOOOOOO",
"OOOOOOOOOOOOooooOXXXXXXXXXXXXXXXXXXXXXXXXXXXXXXOOOOOOOOOOOOOOOOO",
"OOOOOOOOOOOOooooOOOO+++XXXXXXXXXXXXXXXXXXOOOOOOOOOOOOOOOOOOOOOOO",
"OOOOOOOOOOOOooooOOOO++++OOOOOOOOooooOOOOOOOOOOOOOOOOOOOOOOOOOOOO",
"OOOOOOOOOOOOOOOOOOOOOOOOOOOOOOOOOOOOOOOOOOOOOOOOOOOOOOOOOOOOOOOO",
"OOOOOOOOOOOOOOOOOOOOOOOOOOOOOOOOOOOOOOOOOOOOOOOOOOOOOOOOOOOOOOOO",
"OOOOOOOOOOOOOOOOOOOOOOOOOOOOOOOOOOOOOOOOOOOOOOOOOOOOOOOOOOOOOOOO",
"OOOOOOOOOOOOOOOOOOOOOOOOOOOOOOOOOOOOOOOOOOOOOOOOOOOOOOOOOOOOOOOO",
"OOOOOOOOOOOO++++OOOOOOOOOOOOooooOOOOOOOOOOOOOOOOOOOOOOOOOOOOoooo",
"OOOOOOOOOOOO++++OOOOOOOOOOOOooooOOOOOOOOOOOOOOOOOOOOOOOOOOOOoooo",
"OOOOOOOOOOOO++++OOOOOOOOOOOOooooOOOOOOOOOOOOOOOOOOOOOOOOOOOOoooo",
"OOOOOOOOOOOO++++OOOOOOOOOOOOooooOOOOOOOOOOOOOOOOOOOOOOOOOOOOoooo",
"OOOOOOOOOOOOOOOOOOOOOOOOOOOOOOOOOOOOOOOOOOOOooooOOOOOOOO++++++++",
"OOOOOOOOOOOOOOOOOOOOOOOOOOOOOOOOOOOOOOOOOOOOooooOOOOOOOO++++++++",
"OOOOOOOOOOOOOOOOOOOOOOOOOOOOOOOOOOOOOOOOOOOOooooOOOOOOOO++++++++",
"OOOOOOOOOOOOOOOOOOOOOOOOOOOOOOOOOOOOOOOOOOOOooooOOOOOOOO++++++++",
"OOOOOOOOOOOOOOOOOOOOOOOOOOOOOOOOOOOOOOOOOOOOOOOOOOOOoooo++++++++",
"OOOOOOOOOOOOOOOOOOOOOOOOOOOOOOOOOOOOOOOOOOOOOOOOOOOOoooo++++++++",
"OOOOOOOOOOOOOOOOOOOOOOOOOOOOOOOOOOOOOOOOOOOOOOOOOOOOoooo++++++++",
"OOOOOOOOOOOOOOOOOOOOOOOOOOOOOOOOOOOOOOOOOOOOOOOOOOOOoooo++++++++"
};
