/* XPM */
static char *_f4dee78a0134535cc2728ff6d994909qB7cmwiPWv6CCuYV[] = {
/* columns rows colors chars-per-pixel */
"64 64 16 1 ",
"  c black",
". c #10213A",
"X c #3A4A7B",
"o c #7B4242",
"O c #C54242",
"+ c #FF635A",
"@ c #4A9452",
"# c #73CE73",
"$ c #DE9473",
"% c #40B080",
"& c #70C0A0",
"* c #FFC594",
"= c #FFD6B5",
"- c #A0D0C0",
"; c #DEE6EF",
": c #F8F8F8",
/* pixels */
"&&&&&&&&&&&&&&&&&&&&----&&&&&&&&&&&&&&&&&&&XXX&&&&&&&&&&&&&&&&&&",
"&&&&&&&&&&&&&&&&&&&&----&&&&&&&&&&&&&&&&&&&XXX&&&&&&&&&&&&&&&&&&",
"&&&&&&&&&&&&&&&&&&&&----&&&&&&&&&&&&&&&&&&&XXX&&&&&&&&&&&&&&&&&&",
"&&&&&&&&&&&&&&&&&&&&----&&&&&&&&&&&&&XXXXXX:::XXX&&&&&&&&&&&&&&&",
"&&&&&&&&&&&&&&&&&&&&&&&&&&&&&&&&-----XXXXXX:::XXX&&&&&&&&&&&&&&&",
"&&&&&&&&&&&&&&&&&&&&&&&&&&&&&&&&-----XXXXXX:::XXX&&&&&&&&&&&&&&&",
"&&&&&&&&&&&&&&&&&&&&&&&&&&&XXXXXXXXXX:::::::::XXXXXX&&&&&&&&&&&&",
"&&&&&&&&&&&&&&&&&&&&&&&&&&&XXXXXXXXXX:::::::::XXXXXX&&&&&&&&&&&&",
"&&&&&&&&&&&&&&&&&&&&%%%%&&&XXXXXXXXXX:::::::::XXXXXX&&&&&&&&&&&&",
"&&&&&&&&&&&&&&&&&&&&%...XXX#############;;;;;;;;;;;;XXX&&&&&&&&&",
"&&&&&&&&&&&&&&&&&&&&%...XXX#############;;;;;;;;;;;;XXX&&&&&&&&&",
"&&&&&&&&&&&&&&&&&&&&%...XXX#############;;;;;;;;;;;;XXX&&&&&&&&&",
"%%%%&&&&&&&&&&&&&&   ...;;;#######:::;;;###;;;;;;   ----&&&&&&&&",
"%%%%&&&&&&&&&&&&&&   ...;;;#######:::;;;###;;;;;;   ----&&&&&&&&",
"%%%%&&&&&&&&&&&&&&   ...;;;#######:::;;;###;;;;;;   ----&&&&&&&&",
"%%%%&&&&&&&&&&&&&&   @@@;;;::::::::::#########@@@   ----&&&&&&&&",
"&&&&&&&&&&&&&&&&&&   @@@;;;::::::::::#########@@@   &&&&&&&&&&&&",
"&&&&&&&&&&&&&&&&&&   @@@;;;::::::::::#########@@@   &&&&&&&&&&&&",
"&&&&&&ooooooooo&&&...@@@###################@@@@@@@@@   &&&&&&&&&",
"&&&&&&ooooooooo&&&...@@@###################@@@@@@@@@   &&&&&&&&&",
"&&&&&&ooooooooo&&&...@@@###################@@@@@@@@@   &&&&&%%%%",
"&&&ooo:::+++OOOooo...***================@@@@@@@@@@@@   &&&&&%%%%",
"&&&ooo:::+++OOOooo...***================@@@@@@@@@@@@   &&&&&%%%%",
"&&&ooo:::+++OOOooo...***================@@@@@@@@@@@@   &&&&&%%%%",
"oooOOO      ++++++ooo===...=======...===***   $$$$$$ooo&&&&&&&&&",
"oooOOO      ++++++ooo===...=======...===***   $$$$$$ooo&&&&&&&&&",
"oooOOO      ++++++ooo===...=======...===***   $$$$$$ooo&&&&&&&&&",
"   ...   ;;;......$$$===...=======...******ooo$$$$$$ooo&&&&&&&&&",
"   ...   ;;;......$$$===...=======...******ooo$$$$$$ooo&&&&&&&&&",
"   ...   ;;;......$$$===...=======...******ooo$$$$$$ooo&&&&&&&&&",
"   ;;;XXXXXX:::;;;   *******************$$$$$$$$$ooo&&&&&&&&&&&&",
"   ;;;XXXXXX:::;;;   *******************$$$$$$$$$ooo&&&&&&&&&&&&",
"   ;;;XXXXXX:::;;;   *******************$$$$$$$$$ooo----&&&&&&&&",
"   ;;;XXXXXX:::;;;   *******************$$$$$$$$$ooo----&&&&&&&&",
"&&&   ;;;;;;;;;   &&&ooo**********$$$$$$$$$         oooooo&&&&&&",
"&&&   ;;;;;;;;;   &&&ooo**********$$$$$$$$$         oooooo&&&&&&",
"---   ;;;;;;;;;   &&&ooo**********$$$$$$$$$         oooooo&&&&&&",
"------         ooo         ooo$$$$$$$oooooo   oooooo   OOOooo&&&",
"------         ooo         ooo$$$$$$$oooooo   oooooo   OOOooo&&&",
"------         ooo         ooo$$$$$$$oooooo   oooooo   OOOooo&&&",
"------ooo+++OOO   ooo$$$...          ...            OOOOOO...&&&",
"------ooo+++OOO   ooo$$$...          ...            OOOOOO...&&&",
"------ooo+++OOO   ooo$$$...          ...            OOOOOO...&&&",
"--------&ooo         .........OOOOOOO.........      ......&&&&&&",
"&&&&&&&&&ooo         .........OOOOOOO.........      ......&&&&&&",
"&&&&&&&&&ooo         .........OOOOOOO.........      ......&&&&&&",
"&&&&&&&&&&&&%%%%&&         ................OOOooo   &&&&&&&&&&&&",
"&&&&&&&&&&&&%%%%&&         ................OOOooo   &&&&&&&&&&&&",
"&&&&&&&&&&&&&&&&&&         ................OOOooo   &&&&&&&&&&&&",
"&&&&&&&&&&&&&&&&&&&&&      ooo..........OOOooo      &&&&&&&&&&&&",
"&&&&&&&&&&&&&&&&&&&&&      ooo..........OOOooo      &&&&&&&&&&&&",
"&&&&&&&&&&&&&&&&&&&&&      ooo..........OOOooo      &&&&&&&&&&&&",
"&&&&&&&&&&&&----&&&&&         ooooooooooooo         &&&&&&&&%%%%",
"&&&&&&&&&&&&----&&&&&         ooooooooooooo         &&&&&&&&%%%%",
"&&&&&&&&&&&&----&&&&&         ooooooooooooo         &&&&&&&&%%%%",
"&&&&&&&&&&&&----&&&&&   ooo                   ooo   &&&&&&&&%%%%",
"&&&&&&&&&&&&&&&&&&&&&   ooo                   ooo   &&&&--------",
"&&&&&&&&&&&&&&&&&&&&&   ooo                   ooo   &&&&--------",
"&&&&&&&&&&&&&&&&&&&&&   OOO###oooo      ooo###OOO   &&&&--------",
"&&&&&&&&&&&&&&&&&&&&&   OOO###oooo      ooo###OOO   &&&&--------",
"&&&&&&&&&&&&&&&&&&&&&   OOO###oooo      ooo###OOO   %%%%--------",
"&&&&&&&&&&&&&&&&&&&&&&&&          &&&&&&         &&&%%%%--------",
"&&&&&&&&&&&&&&&&&&&&&&&&          &&&&&&         &&&%%%%--------",
"&&&&&&&&&&&&&&&&&&&&&&&&          &&&&&&         &&&%%%%--------"
};
