/* XPM */
static char *_2448a49a52e45b1975a154122f9b4c6ln7qJuha26J5fmML[] = {
/* columns rows colors chars-per-pixel */
"64 64 16 1 ",
"  c black",
". c #10213A",
"X c #3A4A7B",
"o c #7B4242",
"O c #C54242",
"+ c #FF635A",
"@ c #4A9452",
"# c #73CE73",
"$ c #DE9473",
"% c #40B080",
"& c #70C0A0",
"* c #FFC594",
"= c #FFD6B5",
"- c #A0D0C0",
"; c #DEE6EF",
": c #F8F8F8",
/* pixels */
"&&&&&&&&&&&&&&&&&&&&----&&&&&&&&&&&&&&XXX&&&&&&&&&&&&&&&&&&&&&&&",
"&&&&&&&&&&&&&&&&&&&&----&&&&&&&&&&&&&&XXX&&&&&&&&&&&&&&&&&&&&&&&",
"&&&&&&&&&&&&&&&&&&&&----&&&&&&&&&&&&&&XXX&&&&&&&&&&&&&&&&&&&&&&&",
"&&&&&&&&&&&&&&&&&&&&----&&&&&&&&&&&XXX:::XXX&&&&&&&&&&&&&&&&&&&&",
"&&&&&&&&&&&&&&&&&&&&&&&&&&&&&&&&---XXX:::XXX&&&&&&&&&&&&&&&&&&&&",
"&&&&&&&&&&&&&&&&&&&&&&&&&&&&&&&&---XXX:::XXX&&&&&&&&&&&&&&&&&&&&",
"&&&&&&&&&&&&&&&&&&&&&&XXXXXXXXXXXXX::::::XXXXXX&&&&&&&&&&&&&&&&&",
"&&&&&&&&&&&&&&&&&&&&&&XXXXXXXXXXXXX::::::XXXXXX&&&&&&&&&&&&&&&&&",
"&&&&&&&&&&&&&&&&&&&&%%XXXXXXXXXXXXX::::::XXXXXX&&&&&&&&&&&&&&&&&",
"&&&&&&&&&&&&&&&&&&&XXX::::::;;;;;;;;;;;;;;;;;;;XXX&&&&&&&&&&&&&&",
"&&&&&&&&&&&&&&&&&&&XXX::::::;;;;;;;;;;;;;;;;;;;XXX&&&&&&&&&&&&&&",
"&&&&&&&&&&&&&&&&&&&XXX::::::;;;;;;;;;;;;;;;;;;;XXX&&&&&&&&&&&&&&",
"%%%%&&&&&&&&&&&&XXX;;;:::::::::::::;;;;;;;;;XXX%&&&&----&&&&&&&&",
"%%%%&&&&&&&&&&&&XXX;;;:::::::::::::;;;;;;;;;XXX%&&&&----&&&&&&&&",
"%%%%&&&&&&&&&&&&XXX;;;:::::::::::::;;;;;;;;;XXX%&&&&----&&&&&&&&",
"%%%%&&&&&&&&&&&&   ###;;;#############;;;###   %&&&&----&&&&&&&&",
"&&&&&&&&&&&&&&&&   ###;;;#############;;;###   &&&&&&&&&&&&&&&&&",
"&&&&&&&&&&&&&&&&   ###;;;#############;;;###   &&&&&&&&&&&&&&&&&",
"&&&&&&&&&&&&&   @@@@@@;;;:::#######:::;;;@@@@@@   &&&&&&&&&&&&&&",
"&&&&&&&&&&&&&   @@@@@@;;;:::#######:::;;;@@@@@@   &&&&&&&&&&&&&&",
"&&&&&&&&&&&&&   @@@@@@;;;:::#######:::;;;@@@@@@   &&&&&&&&&&%%%%",
"&&&&&&&&&&&&&   XXX@@@###:::::::::::::###@@@XXX   &&&&&&&&&&%%%%",
"&&&&&&&&&&&&&   XXX@@@###:::::::::::::###@@@XXX   &&&&&&&&&&%%%%",
"&&&&&&&&&&&&&   XXX@@@###:::::::::::::###@@@XXX   &&&&&&&&&&%%%%",
"&&&&&&&&&&ooo***   =========================   ***ooo&&&&&&&&&&&",
"&&&&&&&&&&ooo***   =========================   ***ooo&&&&&&&&&&&",
"&&&&&&&&&&ooo***   =========================   ***ooo&&&&&&&&&&&",
"&&&&&&&&&&ooo***ooo======...=======...======ooo***ooo&&&&&&&&&&&",
"&&&&&&&&&&ooo***ooo======...=======...======ooo***ooo&&&&&&&&&&&",
"&&&&&&&&&&ooo***ooo======...=======...======ooo***ooo&&&&&&&&&&&",
"&&&&&&&&&&&&&ooo$$$$$$***...*******...***$$$$$$ooo&&&&&&&&&&&&&&",
"&&&&&&&&&&&&&ooo$$$$$$***...*******...***$$$$$$ooo&&&&&&&&&&&&&&",
"&&&&&&&&&&&&&ooo$$$$$$***...*******...***$$$$$$ooo&&----&&&&&&&&",
"&&&&&&&&&&&&&ooo$$$$$$***...*******...***$$$$$$ooo&&----&&&&&&&&",
"&&&&&&&&&&&&&&&&ooo$$$$$$$$$*******$$$$$$$$$ooo&&&&&----&&&&&&&&",
"&&&&&&&&&&&&&&&&ooo$$$$$$$$$*******$$$$$$$$$ooo&&&&&----&&&&&&&&",
"--------&&&&&&&&ooo$$$$$$$$$*******$$$$$$$$$ooo&&&&&&&&&&&&&&&&&",
"--------&&&&&&&&      ooo$$$$$$$$$$$$$ooo      &&&&&&&&&&&&&&&&&",
"--------&&&&&&&&      ooo$$$$$$$$$$$$$ooo      &&&&&&&&&&&&&&&&&",
"--------&&&&&&&&      ooo$$$$$$$$$$$$$ooo      &&&&&&&&&&&&&&&&&",
"--------&&&&&   ***......             ......***   &&%%%%&&&&&&&&",
"--------&&&&&   ***......             ......***   &&%%%%&&&&&&&&",
"--------&&&&&   ***......             ......***   &&%%%%&&&&&&&&",
"--------&&ooo+++===   ......OOOOOOO......   ===+++ooo%%%&&&&&&&&",
"&&&&&&&&&&ooo+++===   ......OOOOOOO......   ===+++ooo&&&&&&&&&&&",
"&&&&&&&&&&ooo+++===   ......OOOOOOO......   ===+++ooo&&&&&&&&&&&",
"&&&&&&&&&&oooOOOOOOoooOOO.............OOOoooOOOOOO...&&&&&&&&&&&",
"&&&&&&&&&&oooOOOOOOoooOOO.............OOOoooOOOOOO...&&&&&&&&&&&",
"&&&&&&&&&&oooOOOOOOoooOOO.............OOOoooOOOOOO...&&&&&&&&&&&",
"&&&&&&&&&&&&&         oooOOO.......OOOooo      ...&&&&&&&&&&&&&&",
"&&&&&&&&&&&&&         oooOOO.......OOOooo      ...&&&&&&&&&&&&&&",
"&&&&&&&&&&&&&         oooOOO.......OOOooo      ...&&&&&&&&&&&&&&",
"&&&&&&&&&&&&----         ooooooooooooo         &&&&&&&&&&&&&%%%%",
"&&&&&&&&&&&&----         ooooooooooooo         &&&&&&&&&&&&&%%%%",
"&&&&&&&&&&&&----         ooooooooooooo         &&&&&&&&&&&&&%%%%",
"&&&&&&&&&&&&----   ooo                   ooo   &&&&&&&&&&&&&%%%%",
"&&&&&&&&&&&&&&&&   ooo                   ooo   %&&&&&&&&--------",
"&&&&&&&&&&&&&&&&   ooo                   ooo   %&&&&&&&&--------",
"&&&&&&&&&&&&&&&&   OOO###ooo       ooo###OOO   %&&&&&&&&--------",
"&&&&&&&&&&&&&&&&   OOO###ooo       ooo###OOO   %&&&&&&&&--------",
"&&&&&&&&&&&&&&&&   OOO###ooo       ooo###OOO   &&&&&%%%%--------",
"&&&&&&&&&&&&&&&&&&&         &&&&&&&         &&&&&&&&%%%%--------",
"&&&&&&&&&&&&&&&&&&&         &&&&&&&         &&&&&&&&%%%%--------",
"&&&&&&&&&&&&&&&&&&&         &&&&&&&         &&&&&&&&%%%%--------"
};
