/* XPM */
static char *c4e6638f057c48d3a7bda45d9234bb905SfHnIfknD3AMTxd[] = {
/* columns rows colors chars-per-pixel */
"64 64 3 1 ",
"  c #40B080",
". c #70C0A0",
"X c #A0D0C0",
/* pixels */
"....................XXXX........................................",
"....................XXXX........................................",
"....................XXXX........................................",
"....................XXXX........................................",
"................................XXXXXXXX........................",
"................................XXXXXXXX........................",
"................................XXXXXXXX........................",
"................................XXXXXXXX........................",
"....................    ........XXXXXXXX........................",
"....................    ........XXXXXXXX........................",
"....................    ........XXXXXXXX........................",
"....................    ........XXXXXXXX........................",
"    ........................................    ....XXXX........",
"    ........................................    ....XXXX........",
"    ........................................    ....XXXX........",
"    ........................................    ....XXXX........",
"................................................................",
"................................................................",
"................................................................",
"................................................................",
"............................    ............XXXX............    ",
"............................    ............XXXX............    ",
"............................    ............XXXX............    ",
"............................    ............XXXX............    ",
"............    ........XXXXXXXX................................",
"............    ........XXXXXXXX................................",
"............    ........XXXXXXXX................................",
"............    ........XXXXXXXX................................",
"....................    XXXXXXXX................................",
"....................    XXXXXXXX................................",
"....................    XXXXXXXX................................",
"....................    XXXXXXXX................................",
"....................................................XXXX........",
"....................................................XXXX........",
"....................................................XXXX........",
"....................................................XXXX........",
"XXXXXXXX........................................................",
"XXXXXXXX........................................................",
"XXXXXXXX........................................................",
"XXXXXXXX........................................................",
"XXXXXXXX............................................    ........",
"XXXXXXXX............................................    ........",
"XXXXXXXX............................................    ........",
"XXXXXXXX............................................    ........",
"............    ....XXXX........    ............................",
"............    ....XXXX........    ............................",
"............    ....XXXX........    ............................",
"............    ....XXXX........    ............................",
"................................................................",
"................................................................",
"................................................................",
"................................................................",
"............XXXX............    ............................    ",
"............XXXX............    ............................    ",
"............XXXX............    ............................    ",
"............XXXX............    ............................    ",
"............................................    ........XXXXXXXX",
"............................................    ........XXXXXXXX",
"............................................    ........XXXXXXXX",
"............................................    ........XXXXXXXX",
"....................................................    XXXXXXXX",
"....................................................    XXXXXXXX",
"....................................................    XXXXXXXX",
"....................................................    XXXXXXXX"
};
