/* XPM */
static char *cf07bee355fa43a7cb7dfefc62c753a9qN4WqlSwQKT2nZ7U[] = {
/* columns rows colors chars-per-pixel */
"64 64 16 1 ",
"  c black",
". c #10213A",
"X c #3A4A7B",
"o c #7B4242",
"O c #C54242",
"+ c #FF635A",
"@ c #4A9452",
"# c #73CE73",
"$ c #DE9473",
"% c #40B080",
"& c #70C0A0",
"* c #FFC594",
"= c #FFD6B5",
"- c #A0D0C0",
"; c #DEE6EF",
": c #F8F8F8",
/* pixels */
"&&&&&&&&&&&&&&&&&&&&----&&&&&&&&&&&&&XXX&&&&&&&&&&&&&&&&&&&&&&&&",
"&&&&&&&&&&&&&&&&&&&&----&&&&&&&&&&&&&XXX&&&&&&&&&&&&&&&&&&&&&&&&",
"&&&&&&&&&&&&&&&&&&&&----&&&&&&&&&&&&&XXX&&&&&&&&&&&&&&&&&&&&&&&&",
"&&&&&&&&&&&&&&&&&&&&----&&&&&&&&&&XXX:::XXX&&&&&&&&&&&&&&&&&&&&&",
"&&&&&&&&&&&&&&&&&&&&&&&&&&&&&&&&--XXX:::XXX&&&&&&&&&&&&&&&&&&&&&",
"&&&&&&&&&&&&&&&&&&&&&&&&&&&&&&&&--XXX:::XXX&&&&&&&&&&&&&&&&&&&&&",
"&&&&&&&&&&&&&&&&&&&&&XXXXXXXXXXXXX::::::XXXXXX&&&&&&&&&&&&&&&&&&",
"&&&&&&&&&&&&&&&&&&&&&XXXXXXXXXXXXX::::::XXXXXX&&&&&&&&&&&&&&&&&&",
"&&&&&&&&&&&&&&&&&&&&%XXXXXXXXXXXXX::::::XXXXXX&&&&&&&&&&&&&&&&&&",
"&&&&&&&&&&&&&&&&&&XXX::::::;;;;;;;;;;;;;;;;;;;XXX&&&&&&&&&&&&&&&",
"&&&&&&&&&&&&&&&&&&XXX::::::;;;;;;;;;;;;;;;;;;;XXX&&&&&&&&&&&&&&&",
"&&&&&&&&&&&&&&&&&&XXX::::::;;;;;;;;;;;;;;;;;;;XXX&&&&&&&&&&&&&&&",
"%%%%&&&&&&&&&&&XXX:::::::::::::::::::;;;;;;XXX%%&&&&----&&&&&&&&",
"%%%%&&&&&&&&&&&XXX:::::::::::::::::::;;;;;;XXX%%&&&&----&&&&&&&&",
"%%%%&&&&&&&&&&&XXX:::::::::::::::::::;;;;;;XXX%%&&&&----&&&&&&&&",
"%%%%&&&&&&&&&&&   ###;;;#############;;;###   %%&&&&----&&&&&&&&",
"&&&&&&&&&&&&&&&   ###;;;#############;;;###   &&&&&&&&&&&&&&&&&&",
"&&&&&&&&&&&&&&&   ###;;;#############;;;###   &&&&&&&&&&&&&&&&&&",
"&&&&&&&&&&&&   @@@@@@;;;:::#######:::;;;@@@@@@   &&&&&&&&&&&&&&&",
"&&&&&&&&&&&&   @@@@@@;;;:::#######:::;;;@@@@@@   &&&&&&&&&&&&&&&",
"&&&&&&&&&&&&   @@@@@@;;;:::#######:::;;;@@@@@@   &&&&&&&&&&&%%%%",
"&&&&&&&&&&&&   XXX@@@###:::::::::::::###@@@XXX   &&&&&&&&&&&%%%%",
"&&&&&&&&&&&&   XXX@@@###:::::::::::::###@@@XXX   &&&&&&&&&&&%%%%",
"&&&&&&&&&&&&   XXX@@@###:::::::::::::###@@@XXX   &&&&&&&&&&&%%%%",
"&&&&&&&&&ooo***   =========================   ***ooo&&&&&&&&&&&&",
"&&&&&&&&&ooo***   =========================   ***ooo&&&&&&&&&&&&",
"&&&&&&&&&ooo***   =========================   ***ooo&&&&&&&&&&&&",
"&&&&&&&&&ooo***ooo======...=======...======ooo***ooo&&&&&&&&&&&&",
"&&&&&&&&&ooo***ooo======...=======...======ooo***ooo&&&&&&&&&&&&",
"&&&&&&&&&ooo***ooo======...=======...======ooo***ooo&&&&&&&&&&&&",
"&&&&&&&&&&&&ooo$$$$$$***...*******...***$$$$$$ooo&&&&&&&&&&&&&&&",
"&&&&&&&&&&&&ooo$$$$$$***...*******...***$$$$$$ooo&&&&&&&&&&&&&&&",
"&&&&&&&&&&&&ooo$$$$$$***...*******...***$$$$$$ooo&&&----&&&&&&&&",
"&&&&&&&&&&&&ooo$$$$$$***...*******...***$$$$$$ooo&&&----&&&&&&&&",
"&&&&&&&&&&&&   ooo$$$$$$$$$*******$$$$$$$$$ooo&&&&&&----&&&&&&&&",
"&&&&&&&&&&&&   ooo$$$$$$$$$*******$$$$$$$$$ooo&&&&&&----&&&&&&&&",
"--------&&&&   ooo$$$$$$$$$*******$$$$$$$$$ooo&&&&&&&&&&&&&&&&&&",
"--------&ooo@@@      ooo$$$$$$$$$$$$$ooo      &&&&&&&&&&&&&&&&&&",
"--------&ooo@@@      ooo$$$$$$$$$$$$$ooo      &&&&&&&&&&&&&&&&&&",
"--------&ooo@@@      ooo$$$$$$$$$$$$$ooo      &&&&&&&&&&&&&&&&&&",
"--------&...@@@      ...             ...$$$***   &&&%%%%&&&&&&&&",
"--------&...@@@      ...             ...$$$***   &&&%%%%&&&&&&&&",
"--------&...@@@      ...             ...$$$***   &&&%%%%&&&&&&&&",
"--------&&&&...   .........OOOOOOO......      ...&&&%%%%&&&&&&&&",
"&&&&&&&&&&&&...   .........OOOOOOO......      ...&&&&&&&&&&&&&&&",
"&&&&&&&&&&&&...   .........OOOOOOO......      ...&&&&&&&&&&&&&&&",
"&&&&&&&&&&&&%%%%&&   ooo.............   ++++++   &&&&&&&&&&&&&&&",
"&&&&&&&&&&&&%%%%&&   ooo.............   ++++++   &&&&&&&&&&&&&&&",
"&&&&&&&&&&&&&&&&&&   ooo.............   ++++++   &&&&&&&&&&&&&&&",
"&&&&&&&&&&&&&&&&&&      oooooo....OOO   OOOOOO   &&&&&&&&&&&&&&&",
"&&&&&&&&&&&&&&&&&&      oooooo....OOO   OOOOOO   &&&&&&&&&&&&&&&",
"&&&&&&&&&&&&&&&&&&      oooooo....OOO   OOOOOO   &&&&&&&&&&&&&&&",
"&&&&&&&&&&&&----&&...                         &&&&&&&&&&&&&&%%%%",
"&&&&&&&&&&&&----&&...                         &&&&&&&&&&&&&&%%%%",
"&&&&&&&&&&&&----&&...                         &&&&&&&&&&&&&&%%%%",
"&&&&&&&&&&&&----&&   ooo@@@             &&&&&&&&&&&&&&&&&&&&%%%%",
"&&&&&&&&&&&&&&&&&&   ooo@@@             &&&&%%%%&&&&&&&&--------",
"&&&&&&&&&&&&&&&&&&   ooo@@@             &&&&%%%%&&&&&&&&--------",
"&&&&&&&&&&&&&&&&&&   OOO###ooo    &&&&&&&&&&%%%%&&&&&&&&--------",
"&&&&&&&&&&&&&&&&&&   OOO###ooo    &&&&&&&&&&%%%%&&&&&&&&--------",
"&&&&&&&&&&&&&&&&&&   OOO###ooo    &&&&&&&&&&&&&&&&&&%%%%--------",
"&&&&&&&&&&&&&&&&&&&&&         &&&&&&&&&&&&&&&&&&&&&&%%%%--------",
"&&&&&&&&&&&&&&&&&&&&&         &&&&&&&&&&&&&&&&&&&&&&%%%%--------",
"&&&&&&&&&&&&&&&&&&&&&         &&&&&&&&&&&&&&&&&&&&&&%%%%--------"
};
