/* XPM */
static char *a834d6420da7439df1541f6204a01a2dAi3IL1KcJa28PMLV[] = {
/* columns rows colors chars-per-pixel */
"64 64 16 1 ",
"  c black",
". c #10213A",
"X c #3A4A7B",
"o c #7B4242",
"O c #C54242",
"+ c #FF635A",
"@ c #4A9452",
"# c #73CE73",
"$ c #DE9473",
"% c #40B080",
"& c #70C0A0",
"* c #FFC594",
"= c #FFD6B5",
"- c #A0D0C0",
"; c #DEE6EF",
": c #F8F8F8",
/* pixels */
"&&&&&&&&&&&&&&&&&&&&----&&&&&&&&&&&&&XXX&&&&&&&&&&&&&&&&&&&&&&&&",
"&&&&&&&&&&&&&&&&&&&&----&&&&&&&&&&&&&XXX&&&&&&&&&&&&&&&&&&&&&&&&",
"&&&&&&&&&&&&&&&&&&&&----&&&&&&&&&&&&&XXX&&&&&&&&&&&&&&&&&&&&&&&&",
"&&&&&&&&&&&&&&&&&&&&----&&&&&&&&&&XXX:::XXX&&&&&&&&&&&&&&&&&&&&&",
"&&&&&&&&&&&&&&&&&&&&&&&&&&&&&&&&--XXX:::XXX&&&&&&&&&&&&&&&&&&&&&",
"&&&&&&&&&&&&&&&&&&&&&&&&&&&&&&&&--XXX:::XXX&&&&&&&&&&&&&&&&&&&&&",
"&&&&&&&&&&&&&&&&&&&&&XXXXXXXXXXXXX::::::XXXXXX&&&&&&&&&&&&&&&&&&",
"&&&&&&&&&&&&&&&&&&&&&XXXXXXXXXXXXX::::::XXXXXX&&&&&&&&&&&&&&&&&&",
"&&&&&&&&&&&&&&&&&&&&%XXXXXXXXXXXXX::::::XXXXXX&&&&&&&&&&&&&&&&&&",
"&&&&&&&&&&&&&&&&&&XXX::::::;;;;;;;;;;;;;;;;;;;XXX&&&&&&&&&&&&&&&",
"&&&&&&&&&&&&&&&&&&XXX::::::;;;;;;;;;;;;;;;;;;;XXX&&&&&&&&&&&&&&&",
"&&&&&&&&&&&&&&&&&&XXX::::::;;;;;;;;;;;;;;;;;;;XXX&&&&&&&&&&&&&&&",
"%%%%&&&&&&&&&&&XXX:::::::::::::::::::;;;;;;XXX%%&&&&----&&&&&&&&",
"%%%%&&&&&&&&&&&XXX:::::::::::::::::::;;;;;;XXX%%&&&&----&&&&&&&&",
"%%%%&&&&&&&&&&&XXX:::::::::::::::::::;;;;;;XXX%%&&&&----&&&&&&&&",
"%%%%&&&&&&&&&&&   ###;;;#############;;;###   %%&&&&----&&&&&&&&",
"&&&&&&&&&&&&&&&   ###;;;#############;;;###   &&&&&&&&&&&&&&&&&&",
"&&&&&&&&&&&&&&&   ###;;;#############;;;###   &&&&&&&&&&&&&&&&&&",
"&&&&&&&&&&&&   @@@@@@;;;:::#######:::;;;@@@@@@   &&&&&&&&&&&&&&&",
"&&&&&&&&&&&&   @@@@@@;;;:::#######:::;;;@@@@@@   &&&&&&&&&&&&&&&",
"&&&&&&&&&&&&   @@@@@@;;;:::#######:::;;;@@@@@@   &&&&&&&&&&&%%%%",
"&&&&&&&&&&&&   XXX@@@###:::::::::::::###@@@XXX   &&&&&&&&&&&%%%%",
"&&&&&&&&&&&&   XXX@@@###:::::::::::::###@@@XXX   &&&&&&&&&&&%%%%",
"&&&&&&&&&&&&   XXX@@@###:::::::::::::###@@@XXX   &&&&&&&&&&&%%%%",
"&&&&&&&&&ooo***   =========================   ***ooo&&&&&&&&&&&&",
"&&&&&&&&&ooo***   =========================   ***ooo&&&&&&&&&&&&",
"&&&&&&&&&ooo***   =========================   ***ooo&&&&&&&&&&&&",
"&&&&&&&&&ooo***ooo======...=======...======ooo***ooo&&&&&&&&&&&&",
"&&&&&&&&&ooo***ooo======...=======...======ooo***ooo&&&&&&&&&&&&",
"&&&&&&&&&ooo***ooo======...=======...======ooo***ooo&&&&&&&&&&&&",
"&&&&&&&&&&&&ooo$$$$$$***...*******...***$$$$$$ooo&&&&&&&&&&&&&&&",
"&&&&&&&&&&&&ooo$$$$$$***...*******...***$$$$$$ooo&&&&&&&&&&&&&&&",
"&&&&&&&&&&&&ooo$$$$$$***...*******...***$$$$$$ooo&&&----&&&&&&&&",
"&&&&&&&&&&&&ooo$$$$$$***...*******...***$$$$$$ooo&&&----&&&&&&&&",
"&&&&&&&&&&&&&&&ooo$$$$$$$$$*******$$$$$$$$$ooo   &&&----&&&&&&&&",
"&&&&&&&&&&&&&&&ooo$$$$$$$$$*******$$$$$$$$$ooo   &&&----&&&&&&&&",
"--------&&&&&&&ooo$$$$$$$$$*******$$$$$$$$$ooo   &&&&&&&&&&&&&&&",
"--------&&&&&&&      ooo$$$$$$$$$$$$$ooo      @@@ooo&&&&&&&&&&&&",
"--------&&&&&&&      ooo$$$$$$$$$$$$$ooo      @@@ooo&&&&&&&&&&&&",
"--------&&&&&&&      ooo$$$$$$$$$$$$$ooo      @@@ooo&&&&&&&&&&&&",
"--------&&&&   ***$$$...             ...      @@@...%%%%&&&&&&&&",
"--------&&&&   ***$$$...             ...      @@@...%%%%&&&&&&&&",
"--------&&&&   ***$$$...             ...      @@@...%%%%&&&&&&&&",
"--------&&&&...      ......OOOOOOO.........   ...&&&%%%%&&&&&&&&",
"&&&&&&&&&&&&...      ......OOOOOOO.........   ...&&&&&&&&&&&&&&&",
"&&&&&&&&&&&&...      ......OOOOOOO.........   ...&&&&&&&&&&&&&&&",
"&&&&&&&&&&&&   ++++++   .............ooo   &&&&&&&&&&&&&&&&&&&&&",
"&&&&&&&&&&&&   ++++++   .............ooo   &&&&&&&&&&&&&&&&&&&&&",
"&&&&&&&&&&&&   ++++++   .............ooo   &&&&&&&&&&&&&&&&&&&&&",
"&&&&&&&&&&&&   OOOOOO   ooo...ooooooo      &&&&&&&&&&&&&&&&&&&&&",
"&&&&&&&&&&&&   OOOOOO   ooo...ooooooo      &&&&&&&&&&&&&&&&&&&&&",
"&&&&&&&&&&&&   OOOOOO   ooo...ooooooo      &&&&&&&&&&&&&&&&&&&&&",
"&&&&&&&&&&&&---                         ...&&&&&&&&&&&&&&&&&%%%%",
"&&&&&&&&&&&&---                         ...&&&&&&&&&&&&&&&&&%%%%",
"&&&&&&&&&&&&---                         ...&&&&&&&&&&&&&&&&&%%%%",
"&&&&&&&&&&&&----&&&&&             @@@ooo   &&&&&&&&&&&&&&&&&%%%%",
"&&&&&&&&&&&&&&&&&&&&&             @@@ooo   &%%%%&&&&&&&&--------",
"&&&&&&&&&&&&&&&&&&&&&             @@@ooo   &%%%%&&&&&&&&--------",
"&&&&&&&&&&&&&&&&&&&&&&&&&&&   oooo###OOO   &%%%%&&&&&&&&--------",
"&&&&&&&&&&&&&&&&&&&&&&&&&&&   oooo###OOO   &%%%%&&&&&&&&--------",
"&&&&&&&&&&&&&&&&&&&&&&&&&&&   oooo###OOO   &&&&&&&&&%%%%--------",
"&&&&&&&&&&&&&&&&&&&&&&&&&&&&&&          &&&&&&&&&&&&%%%%--------",
"&&&&&&&&&&&&&&&&&&&&&&&&&&&&&&          &&&&&&&&&&&&%%%%--------",
"&&&&&&&&&&&&&&&&&&&&&&&&&&&&&&          &&&&&&&&&&&&%%%%--------"
};
