/* XPM */
static char *_24fd3638a624229aaef4f92908351d4Eg7e5fj6ggBQIZVU[] = {
/* columns rows colors chars-per-pixel */
"64 64 17 1 ",
"  c black",
". c #10213A",
"X c #293A63",
"o c #3A4A7B",
"O c #7B4242",
"+ c #C54242",
"@ c #FF635A",
"# c #4A9452",
"$ c #73CE73",
"% c #DE9473",
"& c #40B080",
"* c #70C0A0",
"= c #FFC594",
"- c #FFD6B5",
"; c #A0D0C0",
": c #DEE6EF",
"> c #F8F8F8",
/* pixels */
"********************;;;;**********ooo***************************",
"********************;;;;**********ooo***************************",
"********************;;;;**********ooo***************************",
"********************;;;;******oooo>>>ooo************************",
"******************************oooo>>>ooo************************",
"******************************oooo>>>ooo************************",
"******************oooooooooooo>>>>>>>ooo************************",
"******************oooooooooooo>>>>>>>ooo************************",
"******************oooooooooooo>>>>>>>ooo************************",
"************oooooo>>>>>>::::::::::::::::oooooo******************",
"************oooooo>>>>>>::::::::::::::::oooooo******************",
"************oooooo>>>>>>::::::::::::::::oooooo******************",
"&&&&*****XXXooo$$$>>>>>>>>>>>>>>>>::::::::::::ooo***;;;;********",
"&&&&*****XXXooo$$$>>>>>>>>>>>>>>>>::::::::::::ooo***;;;;********",
"&&&&*****XXXooo$$$>>>>>>>>>>>>>>>>::::::::::::ooo***;;;;********",
"&&&&*****...>>>>>>$$$$$$:::::::::::::::::::::::::ooo;;;;********",
"*********...>>>>>>$$$$$$:::::::::::::::::::::::::ooo************",
"*********...>>>>>>$$$$$$:::::::::::::::::::::::::ooo************",
"*********###>>>$$$$$$$$$$$$$$$#######::::::   ooo***************",
"*********###>>>$$$$$$$$$$$$$$$#######::::::   ooo***************",
"*********###>>>$$$$$$$$$$$$$$$#######::::::   ooo***********&&&&",
"*********OOO######################......:::   ;;************&&&&",
"*********OOO######################......:::   ;;************&&&&",
"*********OOO######################......:::   ;;************&&&&",
"*********OOO%%%---------   ................   ******************",
"*********OOO%%%---------   ................   ******************",
"*********OOO%%%---------   ................   ******************",
"*********OOO------...---%%%   .............   ******************",
"*********OOO------...---%%%   .............   ******************",
"*********OOO------...---%%%   .............   ******************",
"*********OOO------...===%%%   ====%%%      *********************",
"*********OOO------...===%%%   ====%%%      *********************",
"*********OOO------...===%%%   ====%%%      *********;;;;********",
"*********OOO------...===%%%   ====%%%      *********;;;;********",
"************OOO%%%%%%%%%%%%%%%====%%%OOO   *********;;;;********",
"************OOO%%%%%%%%%%%%%%%====%%%OOO   *********;;;;********",
";;;;;;;;****OOO%%%%%%%%%%%%%%%====%%%OOO   *********************",
";;;;;;;;*******OOOOOO%%%%%%%%%%%%%...   ************************",
";;;;;;;;*******OOOOOO%%%%%%%%%%%%%...   ************************",
";;;;;;;;*******OOOOOO%%%%%%%%%%%%%...   ************************",
";;;;;;;;**********OOO...OOO.......######   *********&&&&********",
";;;;;;;;**********OOO...OOO.......######   *********&&&&********",
";;;;;;;;**********OOO...OOO.......######   *********&&&&********",
";;;;;;;;*******OOO...      .......###OOO$$$   ******&&&&********",
"************&&&OOO...      .......###OOO$$$   ******************",
"************&&&OOO...      .......###OOO$$$   ******************",
"************   OOO   @@@@@@   .......######   ******************",
"************   OOO   @@@@@@   .......######   ******************",
"************   OOO   @@@@@@   .......######   ******************",
"*********   OOO      ++++++          ###   *********************",
"*********   OOO      ++++++          ###   *********************",
"*********   OOO      ++++++          ###   *********************",
"*********   OOOOOO                      +++   **************&&&&",
"*********   OOOOOO                      +++   **************&&&&",
"*********   OOOOOO                      +++   **************&&&&",
"************   OOOOOO                ###+++   **************&&&&",
"************   OOOOOO                ###+++   &&********;;;;;;;;",
"************   OOOOOO                ###+++   &&********;;;;;;;;",
"***************      *********    @@@@@@   *&&&&********;;;;;;;;",
"***************      *********    @@@@@@   *&&&&********;;;;;;;;",
"***************      *********    @@@@@@   *********&&&&;;;;;;;;",
"**********************************      ************&&&&;;;;;;;;",
"**********************************      ************&&&&;;;;;;;;",
"**********************************      ************&&&&;;;;;;;;"
};
