/* XPM */
static char *_f9d523b0ea34f6fd1eda92c1e2f75f3uSR3v7kqbVD2TSgn[] = {
/* columns rows colors chars-per-pixel */
"64 64 17 1 ",
"  c black",
". c #10213A",
"X c #293A63",
"o c #3A4A7B",
"O c #7B4242",
"+ c #C54242",
"@ c #FF635A",
"# c #4A9452",
"$ c #73CE73",
"% c #DE9473",
"& c #40B080",
"* c #70C0A0",
"= c #FFC594",
"- c #FFD6B5",
"; c #A0D0C0",
": c #DEE6EF",
"> c #F8F8F8",
/* pixels */
"********************;;;;ooo*************************************",
"********************;;;;ooo*************************************",
"********************;;;;ooo*************************************",
"********************;ooo>>>ooo**********************************",
"*********************ooo>>>ooo**;;;;;;;;************************",
"*********************ooo>>>ooo**;;;;;;;;************************",
"*********************ooo>>>>>>ooooooooooooo*********************",
"*********************ooo>>>>>>ooooooooooooo*********************",
"********************&ooo>>>>>>ooooooooooooo*********************",
"***************oooooo::::::::::::::::>>>>>>oooooo***************",
"***************oooooo::::::::::::::::>>>>>>oooooo***************",
"***************oooooo::::::::::::::::>>>>>>oooooo***************",
"&&&&********ooo::::::::::::>>>>>>>>>>>>>>>>$$$oooXXX;;;;********",
"&&&&********ooo::::::::::::>>>>>>>>>>>>>>>>$$$oooXXX;;;;********",
"&&&&********ooo::::::::::::>>>>>>>>>>>>>>>>$$$oooXXX;;;;********",
"&&&&*****ooo:::::::::::::::::::::::::$$$$$$>>>>>>...;;;;********",
"*********ooo:::::::::::::::::::::::::$$$$$$>>>>>>...************",
"*********ooo:::::::::::::::::::::::::$$$$$$>>>>>>...************",
"************ooo   ::::::######$$$$$$$$$$$$$$$$>>>###************",
"************ooo   ::::::######$$$$$$$$$$$$$$$$>>>###************",
"************ooo   ::::::######$$$$$$$$$$$$$$$$>>>###********&&&&",
"***************   :::......######################OOO********&&&&",
"***************   :::......######################OOO********&&&&",
"***************   :::......######################OOO********&&&&",
"************&&&   ...................---------%%%OOO************",
"************&&&   ...................---------%%%OOO************",
"************&&&   ...................---------%%%OOO************",
"************&&&   ............    %%%---...------OOO************",
"***************   ............    %%%---...------OOO************",
"***************   ............    %%%---...------OOO************",
"******************      %%%===    %%%===...------OOO************",
"******************      %%%===    %%%===...------OOO************",
"******************      %%%===    %%%===...------OOO;;;;********",
"******************      %%%===    %%%===...------OOO;;;;********",
"******************   OOO%%%===%%%%%%%%%%%%%%%%OOO***;;;;********",
"******************   OOO%%%===%%%%%%%%%%%%%%%%OOO***;;;;********",
";;;;;;;;**********   OOO%%%===%%%%%%%%%%%%%%%%OOO***************",
";;;;;;;;*************   ...%%%%%%%%%%%%%OOOOOO******************",
";;;;;;;;*************   ...%%%%%%%%%%%%%OOOOOO******************",
";;;;;;;;*************   ...%%%%%%%%%%%%%OOOOOO******************",
";;;;;;;;**********   ######OOO....+++OOOOOO*********&&&&********",
";;;;;;;;**********   ######OOO....+++OOOOOO*********&&&&********",
";;;;;;;;**********   ######OOO....+++OOOOOO*********&&&&********",
";;;;;;;;*******   $$$OOO###       ...+++OOOOOO******&&&&********",
"************&&&   $$$OOO###       ...+++OOOOOO******************",
"************&&&   $$$OOO###       ...+++OOOOOO******************",
"************&&&   ######   @@@@@@@   ...+++OOO******************",
"************&&&   ######   @@@@@@@   ...+++OOO******************",
"***************   ######   @@@@@@@   ...+++OOO******************",
"******************   ###   +++++++   ......OOO   ***************",
"******************   ###   +++++++   ......OOO   ***************",
"******************   ###   +++++++   ......OOO   ***************",
"************;;;   OOO                ......   @@@   ********&&&&",
"************;;;   OOO                ......   @@@   ********&&&&",
"************;;;   OOO                ......   @@@   ********&&&&",
"************;;;   OOOOOO                   ###@@@   ********&&&&",
"***************   OOOOOO                   ###@@@   ****;;;;;;;;",
"***************   OOOOOO                   ###@@@   ****;;;;;;;;",
"******************      *************   OOOOOO   *******;;;;;;;;",
"******************      *************   OOOOOO   *******;;;;;;;;",
"******************      *************   OOOOOO   ***&&&&;;;;;;;;",
"****************************************      ******&&&&;;;;;;;;",
"****************************************      ******&&&&;;;;;;;;",
"****************************************      ******&&&&;;;;;;;;"
};
