/* XPM */
static char *_9fa8f532f6d4424c438ede99667b6084BWvQAI4iYRcKU70[] = {
/* columns rows colors chars-per-pixel */
"64 64 15 1 ",
"  c black",
". c #10213A",
"X c #3A4A7B",
"o c #7B4242",
"O c #C54242",
"+ c #FF635A",
"@ c #4A9452",
"# c #73CE73",
"$ c #DE9473",
"% c #40B080",
"& c #70C0A0",
"* c #FFC594",
"= c #A0D0C0",
"- c #DEE6EF",
"; c #F8F8F8",
/* pixels */
"&&&&&&&&&&&&&&&&&&&&=XXX&&&&&&&&&&&&&&&&&&&&&&&&&&&&&&&&&&&&&&&&",
"&&&&&&&&&&&&&&&&&&&&=XXX&&&&&&&&&&&&&&&&&&&&&&&&&&&&&&&&&&&&&&&&",
"&&&&&&&&&&&&&&&&&&&&=XXX&&&&&&&&&&&&&&&&&&&&&&&&&&&&&&&&&&&&&&&&",
"&&&&&&&&&&&&&&&&&&XXX;;;XXX&&&&&&&&&&&&&&&&&&&&&&&&&&&&&&&&&&&&&",
"&&&&&&&&&&&&&&&&&&XXX;;;XXX&&&&&========&&&&&&&&&&&&&&&&&&&&&&&&",
"&&&&&&&&&&&&&&&&&&XXX;;;XXX&&&&&========&&&&&&&&&&&&&&&&&&&&&&&&",
"&&&&&&&&&&&&&&&XXXXXX;;;;;;XXXXXXXXXXXXX&&&&&&&&&&&&&&&&&&&&&&&&",
"&&&&&&&&&&&&&&&XXXXXX;;;;;;XXXXXXXXXXXXX&&&&&&&&&&&&&&&&&&&&&&&&",
"&&&&&&&&&&&&&&&XXXXXX;;;;;;XXXXXXXXXXXXX&&&&&&&&&&&&&&&&&&&&&&&&",
"&&&&&&&&&&&&XXX-------------------;;;;;;XXX&&&&&&&&&&&&&&&&&&&&&",
"&&&&&&&&&&&&XXX-------------------;;;;;;XXX&&&&&&&&&&&&&&&&&&&&&",
"&&&&&&&&&&&&XXX-------------------;;;;;;XXX&&&&&&&&&&&&&&&&&&&&&",
"%%%%&&&&&&&&&&&XXX---;;;;;;;;;;;;;;;;;;;;;;XXX%%&&&&====&&&&&&&&",
"%%%%&&&&&&&&&&&XXX---;;;;;;;;;;;;;;;;;;;;;;XXX%%&&&&====&&&&&&&&",
"%%%%&&&&&&&&&&&XXX---;;;;;;;;;;;;;;;;;;;;;;XXX%%&&&&====&&&&&&&&",
"%%%%&&&&&&&&XXX------------;;;;;;;---;;;;;;---XXX&&&====&&&&&&&&",
"&&&&&&&&&&&&XXX------------;;;;;;;---;;;;;;---XXX&&&&&&&&&&&&&&&",
"&&&&&&&&&&&&XXX------------;;;;;;;---;;;;;;---XXX&&&&&&&&&&&&&&&",
"&&&&&&&&&&&&   -------------------------------   &&&&&&&&&&&&&&&",
"&&&&&&&&&&&&   -------------------------------   &&&&&&&&&&&&&&&",
"&&&&&&&&&&&&   -------------------------------   &&&&&&&&&&&%%%%",
"&&&&&&&&&&&&   ...-------------------------...   &&&&&&&&&&&%%%%",
"&&&&&&&&&&&&   ...-------------------------...   &&&&&&&&&&&%%%%",
"&&&&&&&&&&&&   ...-------------------------...   &&&&&&&&&&&%%%%",
"&&&&&&&&&ooo$$$   ---...-------------...---   $$$ooo&&&&&&&&&&&&",
"&&&&&&&&&ooo$$$   ---...-------------...---   $$$ooo&&&&&&&&&&&&",
"&&&&&&&&&ooo$$$   ---...-------------...---   $$$ooo&&&&&&&&&&&&",
"&&&&&&&&&ooo$$$ooo.........-------.........ooo$$$ooo&&&&&&&&&&&&",
"&&&&&&&&&ooo$$$ooo.........-------.........ooo$$$ooo&&&&&&&&&&&&",
"&&&&&&&&&ooo$$$ooo.........-------.........ooo$$$ooo&&&&&&&&&&&&",
"&&&&&&&&&&&&ooo$$$$$$                   $$$$$$ooo&&&&&&&&&&&&&&&",
"&&&&&&&&&&&&ooo$$$$$$                   $$$$$$ooo&&&&&&&&&&&&&&&",
"&&&&&&&&&&&&ooo$$$$$$                   $$$$$$ooo&&&====&&&&&&&&",
"&&&&&&&&&&&&ooo$$$$$$                   $$$$$$ooo&&&====&&&&&&&&",
"&&&&&&&&&&&&   ooo$$$$$$*************$$$$$$ooo&&&&&&====&&&&&&&&",
"&&&&&&&&&&&&   ooo$$$$$$*************$$$$$$ooo&&&&&&====&&&&&&&&",
"========&&&&   ooo$$$$$$*************$$$$$$ooo&&&&&&&&&&&&&&&&&&",
"========&&&&   @@@......ooooooooooooo$$$...&&&&&&&&&&&&&&&&&&&&&",
"========&&&&   @@@......ooooooooooooo$$$...&&&&&&&&&&&&&&&&&&&&&",
"========&&&&   @@@......ooooooooooooo$$$...&&&&&&&&&&&&&&&&&&&&&",
"========&&&&&&&      ...             ...$$$   &&&&&&%%%%&&&&&&&&",
"========&&&&&&&      ...             ...$$$   &&&&&&%%%%&&&&&&&&",
"========&&&&&&&      ...             ...$$$   &&&&&&%%%%&&&&&&&&",
"========&&&&&&&         @@@;;;;;;;@@@   ooo   &&&&&&%%%%&&&&&&&&",
"&&&&&&&&&&&&%%%         @@@;;;;;;;@@@   ooo   &&&&&&&&&&&&&&&&&&",
"&&&&&&&&&&&&%%%         @@@;;;;;;;@@@   ooo   &&&&&&&&&&&&&&&&&&",
"&&&&&&&&&&&&%%%      ooo#############ooo   +++ooo&&&&&&&&&&&&&&&",
"&&&&&&&&&&&&%%%      ooo#############ooo   +++ooo&&&&&&&&&&&&&&&",
"&&&&&&&&&&&&&&&      ooo#############ooo   +++ooo&&&&&&&&&&&&&&&",
"&&&&&&&&&&&&&&&ooo   ooooooooooooooooooo   OOO...&&&&&&&&&&&&&&&",
"&&&&&&&&&&&&&&&ooo   ooooooooooooooooooo   OOO...&&&&&&&&&&&&&&&",
"&&&&&&&&&&&&&&&ooo   ooooooooooooooooooo   OOO...&&&&&&&&&&&&&&&",
"&&&&&&&&&&&&====&&      @@@@@@@@@@@@@      ...&&&&&&&&&&&&&&%%%%",
"&&&&&&&&&&&&====&&      @@@@@@@@@@@@@      ...&&&&&&&&&&&&&&%%%%",
"&&&&&&&&&&&&====&&      @@@@@@@@@@@@@      ...&&&&&&&&&&&&&&%%%%",
"&&&&&&&&&&&&====&&                      &&&&&&&&&&&&&&&&&&&&%%%%",
"&&&&&&&&&&&&&&&&&&                      &&&&%%%%&&&&&&&&========",
"&&&&&&&&&&&&&&&&&&                      &&&&%%%%&&&&&&&&========",
"&&&&&&&&&&&&&&&&&&   OOOoooooo    &&&&&&&&&&%%%%&&&&&&&&========",
"&&&&&&&&&&&&&&&&&&   OOOoooooo    &&&&&&&&&&%%%%&&&&&&&&========",
"&&&&&&&&&&&&&&&&&&   OOOoooooo    &&&&&&&&&&&&&&&&&&%%%%========",
"&&&&&&&&&&&&&&&&&&&&&         &&&&&&&&&&&&&&&&&&&&&&%%%%========",
"&&&&&&&&&&&&&&&&&&&&&         &&&&&&&&&&&&&&&&&&&&&&%%%%========",
"&&&&&&&&&&&&&&&&&&&&&         &&&&&&&&&&&&&&&&&&&&&&%%%%========"
};
