/* XPM */
static char *_a626a65839a4f18f3b5e83b30df0ee3HSL9miZpB13OHn1x[] = {
/* columns rows colors chars-per-pixel */
"64 64 15 1 ",
"  c black",
". c #10213A",
"X c #3A4A7B",
"o c #7B4242",
"O c #C54242",
"+ c #FF635A",
"@ c #4A9452",
"# c #73CE73",
"$ c #DE9473",
"% c #40B080",
"& c #70C0A0",
"* c #FFC594",
"= c #A0D0C0",
"- c #DEE6EF",
"; c #F8F8F8",
/* pixels */
"&&&&&&&&&&&&&&&&&&&&=XXX&&&&&&&&&&&&&&&&&&&&&&&&&&&&&&&&&&&&&&&&",
"&&&&&&&&&&&&&&&&&&&&=XXX&&&&&&&&&&&&&&&&&&&&&&&&&&&&&&&&&&&&&&&&",
"&&&&&&&&&&&&&&&&&&&&=XXX&&&&&&&&&&&&&&&&&&&&&&&&&&&&&&&&&&&&&&&&",
"&&&&&&&&&&&&&&&&&&XXX;;;XXX&&&&&&&&&&&&&&&&&&&&&&&&&&&&&&&&&&&&&",
"&&&&&&&&&&&&&&&&&&XXX;;;XXX&&&&&========&&&&&&&&&&&&&&&&&&&&&&&&",
"&&&&&&&&&&&&&&&&&&XXX;;;XXX&&&&&========&&&&&&&&&&&&&&&&&&&&&&&&",
"&&&&&&&&&&&&&&&XXXXXX;;;;;;XXXXXXXXXXXXX&&&&&&&&&&&&&&&&&&&&&&&&",
"&&&&&&&&&&&&&&&XXXXXX;;;;;;XXXXXXXXXXXXX&&&&&&&&&&&&&&&&&&&&&&&&",
"&&&&&&&&&&&&&&&XXXXXX;;;;;;XXXXXXXXXXXXX&&&&&&&&&&&&&&&&&&&&&&&&",
"&&&&&&&&&&&&XXX-------------------;;;;;;XXX&&&&&&&&&&&&&&&&&&&&&",
"&&&&&&&&&&&&XXX-------------------;;;;;;XXX&&&&&&&&&&&&&&&&&&&&&",
"&&&&&&&&&&&&XXX-------------------;;;;;;XXX&&&&&&&&&&&&&&&&&&&&&",
"%%%%&&&&&&&&&&&XXX---;;;;;;;;;;;;;;;;;;;;;;XXX%%&&&&====&&&&&&&&",
"%%%%&&&&&&&&&&&XXX---;;;;;;;;;;;;;;;;;;;;;;XXX%%&&&&====&&&&&&&&",
"%%%%&&&&&&&&&&&XXX---;;;;;;;;;;;;;;;;;;;;;;XXX%%&&&&====&&&&&&&&",
"%%%%&&&&&&&&XXX------------;;;;;;;---;;;;;;---XXX&&&====&&&&&&&&",
"&&&&&&&&&&&&XXX------------;;;;;;;---;;;;;;---XXX&&&&&&&&&&&&&&&",
"&&&&&&&&&&&&XXX------------;;;;;;;---;;;;;;---XXX&&&&&&&&&&&&&&&",
"&&&&&&&&&&&&   -------------------------------   &&&&&&&&&&&&&&&",
"&&&&&&&&&&&&   -------------------------------   &&&&&&&&&&&&&&&",
"&&&&&&&&&&&&   -------------------------------   &&&&&&&&&&&%%%%",
"&&&&&&&&&&&&   ...-------------------------...   &&&&&&&&&&&%%%%",
"&&&&&&&&&&&&   ...-------------------------...   &&&&&&&&&&&%%%%",
"&&&&&&&&&&&&   ...-------------------------...   &&&&&&&&&&&%%%%",
"&&&&&&&&&ooo$$$   ---...-------------...---   $$$ooo&&&&&&&&&&&&",
"&&&&&&&&&ooo$$$   ---...-------------...---   $$$ooo&&&&&&&&&&&&",
"&&&&&&&&&ooo$$$   ---...-------------...---   $$$ooo&&&&&&&&&&&&",
"&&&&&&&&&ooo$$$ooo.........-------.........ooo$$$ooo&&&&&&&&&&&&",
"&&&&&&&&&ooo$$$ooo.........-------.........ooo$$$ooo&&&&&&&&&&&&",
"&&&&&&&&&ooo$$$ooo.........-------.........ooo$$$ooo&&&&&&&&&&&&",
"&&&&&&&&&&&&ooo$$$$$$                   $$$$$$ooo&&&&&&&&&&&&&&&",
"&&&&&&&&&&&&ooo$$$$$$                   $$$$$$ooo&&&&&&&&&&&&&&&",
"&&&&&&&&&&&&ooo$$$$$$                   $$$$$$ooo&&&====&&&&&&&&",
"&&&&&&&&&&&&ooo$$$$$$                   $$$$$$ooo&&&====&&&&&&&&",
"&&&&&&&&&&&&&&&ooo$$$$$$*************$$$$$$ooo   &&&====&&&&&&&&",
"&&&&&&&&&&&&&&&ooo$$$$$$*************$$$$$$ooo   &&&====&&&&&&&&",
"========&&&&&&&ooo$$$$$$*************$$$$$$ooo   &&&&&&&&&&&&&&&",
"========&&&&&&&&&&...***ooooooooooooo......OOO   &&&&&&&&&&&&&&&",
"========&&&&&&&&&&...***ooooooooooooo......OOO   &&&&&&&&&&&&&&&",
"========&&&&&&&&&&...***ooooooooooooo......OOO   &&&&&&&&&&&&&&&",
"========&&&&&&&   $$$...             ...      &&&&&&%%%%&&&&&&&&",
"========&&&&&&&   $$$...             ...      &&&&&&%%%%&&&&&&&&",
"========&&&&&&&   $$$...             ...      &&&&&&%%%%&&&&&&&&",
"========&&&&&&&   ooo   @@@;;;;;;;@@@         &&&&&&%%%%&&&&&&&&",
"&&&&&&&&&&&&%%%   ooo   @@@;;;;;;;@@@         &&&&&&&&&&&&&&&&&&",
"&&&&&&&&&&&&%%%   ooo   @@@;;;;;;;@@@         &&&&&&&&&&&&&&&&&&",
"&&&&&&&&&&&&ooo+++   ooo#############ooo      &&&&&&&&&&&&&&&&&&",
"&&&&&&&&&&&&ooo+++   ooo#############ooo      &&&&&&&&&&&&&&&&&&",
"&&&&&&&&&&&&ooo+++   ooo#############ooo      &&&&&&&&&&&&&&&&&&",
"&&&&&&&&&&&&...OOO   ooooooooooooooooooo   ooo&&&&&&&&&&&&&&&&&&",
"&&&&&&&&&&&&...OOO   ooooooooooooooooooo   ooo&&&&&&&&&&&&&&&&&&",
"&&&&&&&&&&&&...OOO   ooooooooooooooooooo   ooo&&&&&&&&&&&&&&&&&&",
"&&&&&&&&&&&&===...      @@@@@@@@@@@@@      &&&&&&&&&&&&&&&&&%%%%",
"&&&&&&&&&&&&===...      @@@@@@@@@@@@@      &&&&&&&&&&&&&&&&&%%%%",
"&&&&&&&&&&&&===...      @@@@@@@@@@@@@      &&&&&&&&&&&&&&&&&%%%%",
"&&&&&&&&&&&&====&&&&&                      &&&&&&&&&&&&&&&&&%%%%",
"&&&&&&&&&&&&&&&&&&&&&                      &%%%%&&&&&&&&========",
"&&&&&&&&&&&&&&&&&&&&&                      &%%%%&&&&&&&&========",
"&&&&&&&&&&&&&&&&&&&&&&&&&&&   oooooooOOO   &%%%%&&&&&&&&========",
"&&&&&&&&&&&&&&&&&&&&&&&&&&&   oooooooOOO   &%%%%&&&&&&&&========",
"&&&&&&&&&&&&&&&&&&&&&&&&&&&   oooooooOOO   &&&&&&&&&%%%%========",
"&&&&&&&&&&&&&&&&&&&&&&&&&&&&&&          &&&&&&&&&&&&%%%%========",
"&&&&&&&&&&&&&&&&&&&&&&&&&&&&&&          &&&&&&&&&&&&%%%%========",
"&&&&&&&&&&&&&&&&&&&&&&&&&&&&&&          &&&&&&&&&&&&%%%%========"
};
