/* XPM */
static char *result[] = {
/* columns rows colors chars-per-pixel */
"64 64 22 1 ",
"  c black",
". c #161616",
"X c #252525",
"o c #2C2C35",
"O c #393939",
"+ c #793E3E",
"@ c #412749",
"# c #5E3076",
"$ c #46464F",
"% c #494951",
"& c #606068",
"* c #F66210",
"= c #D9A179",
"- c #40B080",
"; c #70C0A0",
": c #9595A6",
"> c #9189B9",
", c #F8D1B9",
"< c #C1B9D1",
"1 c #A0D0C0",
"2 c #C3C3D7",
"3 c #E9E9F8",
/* pixels */
";;;;;;;;;;;;;;;;;;;;111$$oooooooooooooo$$;;;;;;;;;;;;;;;;;;;;;;;",
";;;;;;;;;;;;;;;;;;;;111$$oooooooooooooo$$;;;;;;;;;;;;;;;;;;;;;;;",
";;;;;;;;;;;;;;;;;;;;111$$oooooooooooooo$$;;;;;;;;;;;;;;;;;;;;;;;",
";;;;;;;;;;;;;;;;;oooooo$$&&&&&&&&&&&&&&$$oooooo;;;;;;;;;;;;;;;;;",
";;;;;;;;;;;;;;;;;oooooo$$&&&&&&&&&&&&&&$$oooooo;;;;;;;;;;;;;;;;;",
";;;;;;;;;;;;;;;ooooo&&&&&&&&&&&&&&&&&&&&&&&&ooooo;;;;;;;;;;;;;;;",
";;;;;;;;;;;;;;;ooooo&&&&&&&&&&&&&&&&&&&&&&&&ooooo;;;;;;;;;;;;;;;",
";;;;;;;;;;;;;;;ooooo&&&&&&&&&&&&&&&&&&&&&&&&ooooo;;;;;;;;;;;;;;;",
";;;;;;;;;;;;   oo&&&&&&&&&&&&&&&&&&&&&&&&&&&&&&oo   ;;;;;;;;;;;;",
";;;;;;;;;;;;   oo&&&&&&&&&&&&&&&&&&&&&&&&&&&&&&oo   ;;;;;;;;;;;;",
";;;;;;;;;;;;   oo&&&&&&&&&&&&&&&&&&&&&&&&&&&&&&oo   ;;;;;;;;;;;;",
";;;;;;;;;      oo&&&$$$$$$$$$$$$$$$$$$$$$$$$&&&oo      ;;;;;;;;;",
"----;;;;;      oo&&&$$$$$$$$$$$$$$$$$$$$$$$$&&&oo      1;;;;;;;;",
"----;;;;;   ooooo$$$&&&&&&&&&&&&&&&&&&&&&&&&$$$ooooo   1;;;;;;;;",
"----;;;;;   ooooo$$$&&&&&&&&&&&&&&&&&&&&&&&&$$$ooooo   1;;;;;;;;",
"----;;;;;   ooooo$$$&&&&&&&&&&&&&&&&&&&&&&&&$$$ooooo   1;;;;;;;;",
";;;;;;;;;   oooooooo&&&&&&&&&&&&&&&&&&&&&&&&oooooooo   ;;;;;;;;;",
";;;;;;;;;   oooooooo&&&&&&&&&&&&&&&&&&&&&&&&oooooooo   ;;;;;;;;;",
";;;;;;;;;   oooooooo&&&&&&&&&&&&&&&&&&&&&&&&oooooooo   ;;;;;;;;;",
";;;;;;;;;   oooooooo$$$&&&&&&&&&&&&&&&&&&$$$oooooooo   ;;;;;;;;;",
";;;;;;;;;   oooooooo$$$&&&&&&&&&&&&&&&&&&$$$oooooooo   ;;;;;----",
";;;;;;;;;      oooooooo$$$$$$$$$$$$$$$$$$oooooooo   ###;;;;;----",
";;;;;;;;;      oooooooo$$$$$$$$$$$$$$$$$$oooooooo   ###;;;;;----",
";;;;;;;;;      oooooooo$$$$$$$$$$$$$$$$$$oooooooo   ###;;;;;----",
";;;;;;;;;      oooooooooooooooooooooooooooooooooo      ;;;;;;;;;",
";;;;;;;;;      oooooooooooooooooooooooooooooooooo      ;;;;;;;;;",
";;;;;;;;;      oooooooooooooooooooooooooooooooooo      ;;;;;;;;;",
";;;;;;;;;   ===  &&&oooooooooooooooooooooooo&&&  ===   ;;;;;;;;;",
";;;;;;;;;   ===  &&&oooooooooooooooooooooooo&&&  ===   ;;;;;;;;;",
";;;;;;;;;   ===@@ooo&&&&&&&&&&&&&&&&&&&&&&&&ooo@@===   ;;;;;;;;;",
";;;;;;;;;   ===@@ooo&&&&&&&&&&&&&&&&&&&&&&&&ooo@@===   ;;;;;;;;;",
";;;;;;;;;   ===@@ooo&&&&&&&&&&&&&&&&&&&&&&&&ooo@@===   ;;;;;;;;;",
";;;;;;;;;;;;   ++oooooo>>&&&        &&&>>oooooo++   1111;;;;;;;;",
";;;;;;;;;;;;   ++oooooo>>&&&        &&&>>oooooo++   1111;;;;;;;;",
";;;;;;;;;;;;   ++oooooo>>&&&        &&&>>oooooo++   1111;;;;;;;;",
";;;;;;;;;;;;;;;  ======33   ,,,,,,,,   33======  ;;;1111;;;;;;;;",
"11111111;;;;;;;  ======33   ,,,,,,,,   33======  ;;;;;;;;;;;;;;;",
"11111111;;;;;;;;;+++===,,,,,,,,,,,,,,,,,,===+++;;;;;;;;;;;;;;;;;",
"11111111;;;;;;;;;+++===,,,,,,,,,,,,,,,,,,===+++;;;;;;;;;;;;;;;;;",
"11111111;;;;;;;;;+++===,,,,,,,,,,,,,,,,,,===+++;;;;;;;;;;;;;;;;;",
"11111111;;;;;;;;;   +++==,,,,,,==,,,,,,==+++   ;;;;;----;;;;;;;;",
"11111111;;;;;;;;;   +++==,,,,,,==,,,,,,==+++   ;;;;;----;;;;;;;;",
"11111111;;;;;;;;;   +++==,,,,,,==,,,,,,==+++   ;;;;;----;;;;;;;;",
"11111111;;;;;;;  OOOOOO  +++========+++  OOOOOO  ;;;----;;;;;;;;",
";;;;;;;;;;;;---  OOOOOO  +++========+++  OOOOOO  ;;;;;;;;;;;;;;;",
";;;;;;;;;;;;...XXOOOOOO%%%%%***%%***%%%%%OOOOOOXX...;;;;;;;;;;;;",
";;;;;;;;;;;;...XXOOOOOO%%%%%***%%***%%%%%OOOOOOXX...;;;;;;;;;;;;",
";;;;;;;;;;;;...XXOOOOOO%%%%%***%%***%%%%%OOOOOOXX...;;;;;;;;;;;;",
";;;;;;;;;   222::XXXXXX::%%%*****%%%%%%::XXXXXX::222   ;;;;;;;;;",
";;;;;;;;;   222::XXXXXX::%%%*****%%%%%%::XXXXXX::222   ;;;;;;;;;",
";;;;;;;;;   222::XXXXXX::%%%*****%%%%%%::XXXXXX::222   ;;;;;;;;;",
";;;;;;;;;   22222   ...oo::::::::***:::oo...   22222   ;;;;;;;;;",
";;;;;;;;;   22222   ...oo::::::::***:::oo...   22222   ;;;;;----",
";;;;;;;;;;;;        $$$.....XXX..XXX.....$$$        ;;;;;;;;----",
";;;;;;;;;;;;        $$$.....XXX..XXX.....$$$        ;;;;;;;;----",
";;;;;;;;;;;;        $$$.....XXX..XXX.....$$$        ;;;;;;;;----",
";;;;;;;;;;;;;;;;;   ooooo$$$$$$oo$$$$$$ooooo   -;;;;;;;;11111111",
";;;;;;;;;;;;;;;;;   ooooo$$$$$$oo$$$$$$ooooo   -;;;;;;;;11111111",
";;;;;;;;;;;;;;;;;   ooooo$$$$$$oo$$$$$$ooooo   -;;;;;;;;11111111",
";;;;;;;;;;;;;;;;;   <<<<<              <<<<<   -;;;;;;;;11111111",
";;;;;;;;;;;;;;;;;   <<<<<              <<<<<   ;;;;;----11111111",
";;;;;;;;;;;;;;;;;;;;     ;;;;;;;;;;;;;;     ;;;;;;;;----11111111",
";;;;;;;;;;;;;;;;;;;;     ;;;;;;;;;;;;;;     ;;;;;;;;----11111111",
";;;;;;;;;;;;;;;;;;;;     ;;;;;;;;;;;;;;     ;;;;;;;;----11111111"
};
